<svg width="56" height="56" viewBox="0 0 56 56" fill="none" xmlns="http://www.w3.org/2000/svg">
<circle cx="28" cy="28" r="24.5" fill="#3290E8"/>
<path fill-rule="evenodd" clip-rule="evenodd" d="M38.5 14H17.5C15.592 13.997 14.0034 15.5955 14 17.5V38.5C14 40.4328 15.5674 42 17.5 42H38.5C40.408 42.003 41.9966 40.4045 42 38.5V17.5C42 15.5672 40.4333 14 38.5 14ZM31.7326 19.1333C31.7326 18.6184 32.1512 18.2 32.6667 18.2C33.1822 18.2 33.6 18.6184 33.6 19.1333V31.6034C33.6 32.1183 33.1814 32.5368 32.6667 32.5368C32.1725 32.5372 31.7346 32.0992 31.7333 31.6034L31.7326 19.1333ZM27.0659 18.6612C27.0659 18.1456 27.4845 17.7279 28 17.7279C28.5155 17.7279 28.9341 18.1456 28.9341 18.6612V32.1946C28.9341 32.7102 28.5155 33.1279 28 33.1279C27.5059 33.1283 27.0679 32.6903 27.0667 32.1946L27.0659 18.6612ZM22.4 19.1333C22.4 18.6184 22.8186 18.2 23.3333 18.2C23.8488 18.2 24.2667 18.6184 24.2667 19.1333V31.6034C24.2667 32.1183 23.8488 32.5368 23.3333 32.5368C22.8392 32.5372 22.4012 32.0992 22.4 31.6034V19.1333ZM17.7333 21C17.7333 20.4843 18.1512 20.0667 18.6667 20.0667C19.1822 20.0667 19.6 20.4843 19.6 21V29.3946C19.6 29.9102 19.1814 30.3279 18.6667 30.3279C18.1578 30.3287 17.7342 29.9025 17.7333 29.3946V21ZM37.9411 35.2364C37.7977 35.3609 34.3395 38.2612 28 38.2612C21.6605 38.2612 18.2047 35.3601 18.0589 35.2357C17.6733 34.9053 17.6277 34.3058 17.9581 33.9204C18.2803 33.5454 18.8951 33.4974 19.2713 33.8178C19.3256 33.8637 22.4132 36.3946 27.9992 36.3946C33.655 36.3946 36.6954 33.845 36.7248 33.8201C37.1005 33.4973 37.7176 33.5444 38.0403 33.9204C38.373 34.305 38.328 34.9062 37.9411 35.2364ZM38.2667 29.3953C38.2667 29.9102 37.8481 30.3287 37.3333 30.3287C36.8245 30.3295 36.4008 29.9032 36.4 29.3953V21C36.4 20.4843 36.8178 20.0667 37.3326 20.0667C37.8481 20.0667 38.2667 20.4843 38.2667 21V29.3953Z" fill="white"/>
</svg>
