<svg width="738" height="368" viewBox="0 0 738 368" fill="none" xmlns="http://www.w3.org/2000/svg">
<line x1="1.5" y1="10.5" x2="736.5" y2="10.5" stroke="#F2F4F7" stroke-linecap="round"/>
<line x1="1.5" y1="78.6" x2="736.5" y2="78.6" stroke="#F2F4F7" stroke-linecap="round"/>
<line x1="1.5" y1="144.2" x2="736.5" y2="144.2" stroke="#F2F4F7" stroke-linecap="round"/>
<line x1="1.5" y1="209.8" x2="736.5" y2="209.8" stroke="#F2F4F7" stroke-linecap="round"/>
<line x1="1.5" y1="275.4" x2="736.5" y2="275.4" stroke="#F2F4F7" stroke-linecap="round"/>
<line x1="1.5" y1="341" x2="736.5" y2="341" stroke="#F2F4F7" stroke-linecap="round"/>
<path d="M29.7493 354.273H30.8061V360.511C30.8061 361.068 30.7038 361.541 30.4993 361.93C30.2947 362.32 30.0064 362.615 29.6342 362.817C29.2621 363.018 28.8232 363.119 28.3175 363.119C27.8402 363.119 27.4155 363.033 27.0433 362.859C26.6712 362.683 26.3786 362.433 26.1655 362.109C25.9524 361.786 25.8459 361.401 25.8459 360.955H26.8857C26.8857 361.202 26.9467 361.418 27.0689 361.602C27.1939 361.784 27.3643 361.926 27.5803 362.028C27.7962 362.131 28.0419 362.182 28.3175 362.182C28.6214 362.182 28.88 362.118 29.093 361.99C29.3061 361.862 29.468 361.675 29.5788 361.428C29.6925 361.178 29.7493 360.872 29.7493 360.511V354.273ZM34.7138 363.153C34.299 363.153 33.9226 363.075 33.5845 362.919C33.2464 362.76 32.978 362.531 32.7791 362.233C32.5803 361.932 32.4808 361.568 32.4808 361.142C32.4808 360.767 32.5547 360.463 32.7024 360.23C32.8501 359.994 33.0476 359.81 33.2947 359.676C33.5419 359.543 33.8146 359.443 34.1129 359.378C34.4141 359.31 34.7166 359.256 35.0206 359.216C35.4183 359.165 35.7408 359.126 35.9879 359.101C36.2379 359.072 36.4197 359.026 36.5334 358.96C36.6499 358.895 36.7081 358.781 36.7081 358.619V358.585C36.7081 358.165 36.593 357.838 36.3629 357.605C36.1357 357.372 35.7905 357.256 35.3274 357.256C34.8473 357.256 34.4709 357.361 34.1982 357.571C33.9254 357.781 33.7337 358.006 33.6229 358.244L32.6683 357.903C32.8388 357.506 33.0661 357.196 33.3501 356.974C33.6371 356.75 33.9496 356.594 34.2876 356.506C34.6286 356.415 34.9638 356.369 35.2933 356.369C35.5036 356.369 35.745 356.395 36.0178 356.446C36.2933 356.494 36.5589 356.595 36.8146 356.749C37.0732 356.902 37.2876 357.134 37.4581 357.443C37.6286 357.753 37.7138 358.168 37.7138 358.688V363H36.7081V362.114H36.657C36.5888 362.256 36.4751 362.408 36.3161 362.57C36.157 362.732 35.9453 362.869 35.6811 362.983C35.4169 363.097 35.0945 363.153 34.7138 363.153ZM34.8672 362.25C35.2649 362.25 35.6001 362.172 35.8729 362.016C36.1484 361.859 36.3558 361.658 36.495 361.411C36.6371 361.163 36.7081 360.903 36.7081 360.631V359.71C36.6655 359.761 36.5717 359.808 36.4268 359.851C36.2848 359.891 36.12 359.926 35.9325 359.957C35.7479 359.986 35.5675 360.011 35.3913 360.034C35.218 360.054 35.0774 360.071 34.9695 360.085C34.7081 360.119 34.4638 360.175 34.2365 360.251C34.0121 360.325 33.8303 360.437 33.6911 360.588C33.5547 360.736 33.4865 360.937 33.4865 361.193C33.4865 361.543 33.6158 361.807 33.8743 361.986C34.1357 362.162 34.4666 362.25 34.8672 362.25ZM40.555 359.062V363H39.5494V356.455H40.521V357.477H40.6062C40.7596 357.145 40.9925 356.878 41.305 356.676C41.6175 356.472 42.021 356.369 42.5153 356.369C42.9585 356.369 43.3462 356.46 43.6786 356.642C44.011 356.821 44.2695 357.094 44.4542 357.46C44.6388 357.824 44.7312 358.284 44.7312 358.841V363H43.7255V358.909C43.7255 358.395 43.592 357.994 43.3249 357.707C43.0579 357.418 42.6914 357.273 42.2255 357.273C41.9045 357.273 41.6175 357.342 41.3647 357.482C41.1147 357.621 40.9173 357.824 40.7724 358.091C40.6275 358.358 40.555 358.682 40.555 359.062Z" fill="#475467"/>
<path d="M86.1478 363V354.273H91.3807V355.21H87.2046V358.159H90.9887V359.097H87.2046V363H86.1478ZM95.3182 363.136C94.6875 363.136 94.1435 362.997 93.6861 362.719C93.2316 362.438 92.8807 362.045 92.6336 361.543C92.3892 361.037 92.2671 360.449 92.2671 359.778C92.2671 359.108 92.3892 358.517 92.6336 358.006C92.8807 357.491 93.2245 357.091 93.6648 356.804C94.108 356.514 94.625 356.369 95.2159 356.369C95.5569 356.369 95.8935 356.426 96.2259 356.54C96.5583 356.653 96.8608 356.838 97.1336 357.094C97.4063 357.347 97.6236 357.682 97.7855 358.099C97.9475 358.517 98.0284 359.031 98.0284 359.642V360.068H92.983V359.199H97.0057C97.0057 358.83 96.9319 358.5 96.7841 358.21C96.6392 357.92 96.4319 357.692 96.162 357.524C95.8949 357.357 95.5796 357.273 95.2159 357.273C94.8154 357.273 94.4688 357.372 94.1762 357.571C93.8864 357.767 93.6634 358.023 93.5071 358.338C93.3509 358.653 93.2728 358.991 93.2728 359.352V359.932C93.2728 360.426 93.358 360.845 93.5284 361.189C93.7017 361.53 93.9418 361.79 94.2486 361.969C94.5554 362.145 94.912 362.233 95.3182 362.233C95.5824 362.233 95.8211 362.196 96.0341 362.122C96.25 362.045 96.4361 361.932 96.5924 361.781C96.7486 361.628 96.8694 361.437 96.9546 361.21L97.9262 361.483C97.8239 361.812 97.652 362.102 97.4105 362.352C97.1691 362.599 96.8708 362.793 96.5157 362.932C96.1605 363.068 95.7614 363.136 95.3182 363.136ZM99.6946 363V354.273H100.7V357.494H100.786C100.859 357.381 100.962 357.236 101.092 357.06C101.226 356.881 101.416 356.722 101.663 356.582C101.913 356.44 102.251 356.369 102.678 356.369C103.229 356.369 103.715 356.507 104.135 356.783C104.555 357.058 104.884 357.449 105.119 357.955C105.355 358.46 105.473 359.057 105.473 359.744C105.473 360.438 105.355 361.038 105.119 361.547C104.884 362.053 104.557 362.445 104.139 362.723C103.722 362.999 103.24 363.136 102.695 363.136C102.274 363.136 101.938 363.067 101.685 362.928C101.432 362.786 101.237 362.625 101.101 362.446C100.965 362.264 100.859 362.114 100.786 361.994H100.666V363H99.6946ZM100.683 359.727C100.683 360.222 100.756 360.658 100.901 361.036C101.045 361.411 101.257 361.705 101.536 361.918C101.814 362.128 102.155 362.233 102.558 362.233C102.979 362.233 103.33 362.122 103.611 361.901C103.895 361.676 104.108 361.375 104.25 360.997C104.395 360.616 104.467 360.193 104.467 359.727C104.467 359.267 104.396 358.852 104.254 358.483C104.115 358.111 103.903 357.817 103.619 357.601C103.338 357.382 102.984 357.273 102.558 357.273C102.149 357.273 101.805 357.376 101.527 357.584C101.249 357.788 101.038 358.075 100.896 358.445C100.754 358.811 100.683 359.239 100.683 359.727Z" fill="#475467"/>
<path d="M146.288 354.273H147.549L150.515 361.517H150.617L153.583 354.273H154.844V363H153.856V356.369H153.77L151.043 363H150.089L147.361 356.369H147.276V363H146.288V354.273ZM158.753 363.153C158.338 363.153 157.962 363.075 157.624 362.919C157.286 362.76 157.017 362.531 156.818 362.233C156.62 361.932 156.52 361.568 156.52 361.142C156.52 360.767 156.594 360.463 156.742 360.23C156.889 359.994 157.087 359.81 157.334 359.676C157.581 359.543 157.854 359.443 158.152 359.378C158.453 359.31 158.756 359.256 159.06 359.216C159.458 359.165 159.78 359.126 160.027 359.101C160.277 359.072 160.459 359.026 160.573 358.96C160.689 358.895 160.747 358.781 160.747 358.619V358.585C160.747 358.165 160.632 357.838 160.402 357.605C160.175 357.372 159.83 357.256 159.367 357.256C158.887 357.256 158.51 357.361 158.237 357.571C157.965 357.781 157.773 358.006 157.662 358.244L156.708 357.903C156.878 357.506 157.105 357.196 157.389 356.974C157.676 356.75 157.989 356.594 158.327 356.506C158.668 356.415 159.003 356.369 159.333 356.369C159.543 356.369 159.784 356.395 160.057 356.446C160.333 356.494 160.598 356.595 160.854 356.749C161.112 356.902 161.327 357.134 161.497 357.443C161.668 357.753 161.753 358.168 161.753 358.688V363H160.747V362.114H160.696C160.628 362.256 160.514 362.408 160.355 362.57C160.196 362.732 159.985 362.869 159.72 362.983C159.456 363.097 159.134 363.153 158.753 363.153ZM158.906 362.25C159.304 362.25 159.639 362.172 159.912 362.016C160.188 361.859 160.395 361.658 160.534 361.411C160.676 361.163 160.747 360.903 160.747 360.631V359.71C160.705 359.761 160.611 359.808 160.466 359.851C160.324 359.891 160.159 359.926 159.972 359.957C159.787 359.986 159.607 360.011 159.431 360.034C159.257 360.054 159.117 360.071 159.009 360.085C158.747 360.119 158.503 360.175 158.276 360.251C158.051 360.325 157.87 360.437 157.73 360.588C157.594 360.736 157.526 360.937 157.526 361.193C157.526 361.543 157.655 361.807 157.914 361.986C158.175 362.162 158.506 362.25 158.906 362.25ZM163.589 363V356.455H164.56V357.443H164.628C164.748 357.119 164.964 356.857 165.276 356.655C165.589 356.453 165.941 356.352 166.333 356.352C166.407 356.352 166.499 356.354 166.61 356.357C166.721 356.359 166.805 356.364 166.861 356.369V357.392C166.827 357.384 166.749 357.371 166.627 357.354C166.508 357.334 166.381 357.324 166.248 357.324C165.93 357.324 165.645 357.391 165.395 357.524C165.148 357.655 164.952 357.837 164.807 358.07C164.665 358.3 164.594 358.562 164.594 358.858V363H163.589Z" fill="#475467"/>
<path d="M207.744 363H206.636L209.841 354.273H210.932L214.136 363H213.028L210.42 355.653H210.352L207.744 363ZM208.153 359.591H212.619V360.528H208.153V359.591ZM215.359 365.455V356.455H216.331V357.494H216.45C216.524 357.381 216.626 357.236 216.757 357.06C216.89 356.881 217.081 356.722 217.328 356.582C217.578 356.44 217.916 356.369 218.342 356.369C218.893 356.369 219.379 356.507 219.8 356.783C220.22 357.058 220.548 357.449 220.784 357.955C221.02 358.46 221.138 359.057 221.138 359.744C221.138 360.438 221.02 361.038 220.784 361.547C220.548 362.053 220.221 362.445 219.804 362.723C219.386 362.999 218.905 363.136 218.359 363.136C217.939 363.136 217.602 363.067 217.349 362.928C217.096 362.786 216.902 362.625 216.765 362.446C216.629 362.264 216.524 362.114 216.45 361.994H216.365V365.455H215.359ZM216.348 359.727C216.348 360.222 216.42 360.658 216.565 361.036C216.71 361.411 216.922 361.705 217.2 361.918C217.478 362.128 217.819 362.233 218.223 362.233C218.643 362.233 218.994 362.122 219.275 361.901C219.559 361.676 219.773 361.375 219.915 360.997C220.059 360.616 220.132 360.193 220.132 359.727C220.132 359.267 220.061 358.852 219.919 358.483C219.78 358.111 219.568 357.817 219.284 357.601C219.003 357.382 218.649 357.273 218.223 357.273C217.814 357.273 217.47 357.376 217.192 357.584C216.913 357.788 216.703 358.075 216.561 358.445C216.419 358.811 216.348 359.239 216.348 359.727ZM222.672 363V356.455H223.643V357.443H223.711C223.831 357.119 224.047 356.857 224.359 356.655C224.672 356.453 225.024 356.352 225.416 356.352C225.49 356.352 225.582 356.354 225.693 356.357C225.804 356.359 225.888 356.364 225.944 356.369V357.392C225.91 357.384 225.832 357.371 225.71 357.354C225.591 357.334 225.464 357.324 225.331 357.324C225.013 357.324 224.728 357.391 224.478 357.524C224.231 357.655 224.035 357.837 223.89 358.07C223.748 358.3 223.677 358.562 223.677 358.858V363H222.672Z" fill="#475467"/>
<path d="M266.479 354.273H267.74L270.706 361.517H270.809L273.775 354.273H275.036V363H274.047V356.369H273.962L271.235 363H270.28L267.553 356.369H267.468V363H266.479V354.273ZM278.945 363.153C278.53 363.153 278.153 363.075 277.815 362.919C277.477 362.76 277.209 362.531 277.01 362.233C276.811 361.932 276.712 361.568 276.712 361.142C276.712 360.767 276.786 360.463 276.933 360.23C277.081 359.994 277.278 359.81 277.526 359.676C277.773 359.543 278.045 359.443 278.344 359.378C278.645 359.31 278.947 359.256 279.251 359.216C279.649 359.165 279.972 359.126 280.219 359.101C280.469 359.072 280.651 359.026 280.764 358.96C280.881 358.895 280.939 358.781 280.939 358.619V358.585C280.939 358.165 280.824 357.838 280.594 357.605C280.366 357.372 280.021 357.256 279.558 357.256C279.078 357.256 278.702 357.361 278.429 357.571C278.156 357.781 277.964 358.006 277.854 358.244L276.899 357.903C277.07 357.506 277.297 357.196 277.581 356.974C277.868 356.75 278.18 356.594 278.518 356.506C278.859 356.415 279.195 356.369 279.524 356.369C279.734 356.369 279.976 356.395 280.249 356.446C280.524 356.494 280.79 356.595 281.045 356.749C281.304 356.902 281.518 357.134 281.689 357.443C281.859 357.753 281.945 358.168 281.945 358.688V363H280.939V362.114H280.888C280.82 362.256 280.706 362.408 280.547 362.57C280.388 362.732 280.176 362.869 279.912 362.983C279.648 363.097 279.325 363.153 278.945 363.153ZM279.098 362.25C279.496 362.25 279.831 362.172 280.104 362.016C280.379 361.859 280.587 361.658 280.726 361.411C280.868 361.163 280.939 360.903 280.939 360.631V359.71C280.896 359.761 280.803 359.808 280.658 359.851C280.516 359.891 280.351 359.926 280.163 359.957C279.979 359.986 279.798 360.011 279.622 360.034C279.449 360.054 279.308 360.071 279.2 360.085C278.939 360.119 278.695 360.175 278.467 360.251C278.243 360.325 278.061 360.437 277.922 360.588C277.786 360.736 277.717 360.937 277.717 361.193C277.717 361.543 277.847 361.807 278.105 361.986C278.366 362.162 278.697 362.25 279.098 362.25ZM284.194 365.455C284.023 365.455 283.871 365.44 283.738 365.412C283.604 365.386 283.512 365.361 283.461 365.335L283.716 364.449C283.961 364.511 284.177 364.534 284.364 364.517C284.552 364.5 284.718 364.416 284.863 364.266C285.01 364.118 285.145 363.878 285.267 363.545L285.455 363.034L283.034 356.455H284.125L285.932 361.67H286L287.807 356.455H288.898L286.12 363.955C285.995 364.293 285.84 364.572 285.655 364.794C285.471 365.018 285.256 365.185 285.012 365.293C284.77 365.401 284.498 365.455 284.194 365.455Z" fill="#475467"/>
<path d="M333.098 354.273H334.155V360.511C334.155 361.068 334.053 361.541 333.848 361.93C333.644 362.32 333.356 362.615 332.983 362.817C332.611 363.018 332.172 363.119 331.667 363.119C331.189 363.119 330.765 363.033 330.392 362.859C330.02 362.683 329.728 362.433 329.515 362.109C329.302 361.786 329.195 361.401 329.195 360.955H330.235C330.235 361.202 330.296 361.418 330.418 361.602C330.543 361.784 330.713 361.926 330.929 362.028C331.145 362.131 331.391 362.182 331.667 362.182C331.971 362.182 332.229 362.118 332.442 361.99C332.655 361.862 332.817 361.675 332.928 361.428C333.042 361.178 333.098 360.872 333.098 360.511V354.273ZM340.262 360.324V356.455H341.267V363H340.262V361.892H340.194C340.04 362.224 339.802 362.507 339.478 362.74C339.154 362.97 338.745 363.085 338.25 363.085C337.841 363.085 337.478 362.996 337.159 362.817C336.841 362.635 336.591 362.362 336.409 361.999C336.228 361.632 336.137 361.17 336.137 360.614V356.455H337.142V360.545C337.142 361.023 337.276 361.403 337.543 361.688C337.813 361.972 338.157 362.114 338.574 362.114C338.824 362.114 339.079 362.05 339.337 361.922C339.598 361.794 339.817 361.598 339.993 361.334C340.172 361.07 340.262 360.733 340.262 360.324ZM344.115 359.062V363H343.109V356.455H344.081V357.477H344.166C344.32 357.145 344.553 356.878 344.865 356.676C345.178 356.472 345.581 356.369 346.075 356.369C346.519 356.369 346.906 356.46 347.239 356.642C347.571 356.821 347.83 357.094 348.014 357.46C348.199 357.824 348.291 358.284 348.291 358.841V363H347.286V358.909C347.286 358.395 347.152 357.994 346.885 357.707C346.618 357.418 346.251 357.273 345.786 357.273C345.465 357.273 345.178 357.342 344.925 357.482C344.675 357.621 344.477 357.824 344.332 358.091C344.188 358.358 344.115 358.682 344.115 359.062Z" fill="#475467"/>
<path d="M393.275 354.273H394.332V360.511C394.332 361.068 394.23 361.541 394.025 361.93C393.821 362.32 393.532 362.615 393.16 362.817C392.788 363.018 392.349 363.119 391.843 363.119C391.366 363.119 390.941 363.033 390.569 362.859C390.197 362.683 389.904 362.433 389.691 362.109C389.478 361.786 389.372 361.401 389.372 360.955H390.412C390.412 361.202 390.473 361.418 390.595 361.602C390.72 361.784 390.89 361.926 391.106 362.028C391.322 362.131 391.568 362.182 391.843 362.182C392.147 362.182 392.406 362.118 392.619 361.99C392.832 361.862 392.994 361.675 393.105 361.428C393.218 361.178 393.275 360.872 393.275 360.511V354.273ZM400.439 360.324V356.455H401.444V363H400.439V361.892H400.37C400.217 362.224 399.978 362.507 399.654 362.74C399.331 362.97 398.922 363.085 398.427 363.085C398.018 363.085 397.654 362.996 397.336 362.817C397.018 362.635 396.768 362.362 396.586 361.999C396.404 361.632 396.314 361.17 396.314 360.614V356.455H397.319V360.545C397.319 361.023 397.453 361.403 397.72 361.688C397.99 361.972 398.333 362.114 398.751 362.114C399.001 362.114 399.255 362.05 399.514 361.922C399.775 361.794 399.994 361.598 400.17 361.334C400.349 361.07 400.439 360.733 400.439 360.324ZM404.292 354.273V363H403.286V354.273H404.292Z" fill="#475467"/>
<path d="M446.354 363H445.246L448.45 354.273H449.541L452.746 363H451.638L449.03 355.653H448.962L446.354 363ZM446.763 359.591H451.229V360.528H446.763V359.591ZM458.094 360.324V356.455H459.1V363H458.094V361.892H458.026C457.872 362.224 457.634 362.507 457.31 362.74C456.986 362.97 456.577 363.085 456.083 363.085C455.673 363.085 455.31 362.996 454.992 362.817C454.673 362.635 454.423 362.362 454.242 361.999C454.06 361.632 453.969 361.17 453.969 360.614V356.455H454.975V360.545C454.975 361.023 455.108 361.403 455.375 361.688C455.645 361.972 455.989 362.114 456.406 362.114C456.656 362.114 456.911 362.05 457.169 361.922C457.431 361.794 457.649 361.598 457.825 361.334C458.004 361.07 458.094 360.733 458.094 360.324ZM463.584 365.591C463.098 365.591 462.68 365.528 462.331 365.403C461.981 365.281 461.69 365.119 461.457 364.918C461.227 364.719 461.044 364.506 460.907 364.278L461.709 363.716C461.8 363.835 461.915 363.972 462.054 364.125C462.193 364.281 462.383 364.416 462.625 364.53C462.869 364.646 463.189 364.705 463.584 364.705C464.112 364.705 464.548 364.577 464.892 364.321C465.236 364.065 465.407 363.665 465.407 363.119V361.79H465.322C465.248 361.909 465.143 362.057 465.007 362.233C464.873 362.406 464.68 362.561 464.427 362.697C464.177 362.831 463.839 362.898 463.413 362.898C462.885 362.898 462.41 362.773 461.99 362.523C461.572 362.273 461.241 361.909 460.997 361.432C460.755 360.955 460.635 360.375 460.635 359.693C460.635 359.023 460.753 358.439 460.988 357.942C461.224 357.442 461.552 357.055 461.973 356.783C462.393 356.507 462.879 356.369 463.43 356.369C463.856 356.369 464.194 356.44 464.444 356.582C464.697 356.722 464.89 356.881 465.024 357.06C465.16 357.236 465.265 357.381 465.339 357.494H465.442V356.455H466.413V363.188C466.413 363.75 466.285 364.207 466.03 364.56C465.777 364.915 465.436 365.175 465.007 365.339C464.581 365.507 464.106 365.591 463.584 365.591ZM463.55 361.994C463.953 361.994 464.294 361.902 464.572 361.717C464.851 361.533 465.062 361.267 465.207 360.92C465.352 360.574 465.425 360.159 465.425 359.676C465.425 359.205 465.354 358.788 465.211 358.428C465.069 358.067 464.859 357.784 464.581 357.58C464.302 357.375 463.959 357.273 463.55 357.273C463.123 357.273 462.768 357.381 462.484 357.597C462.203 357.812 461.991 358.102 461.849 358.466C461.71 358.83 461.64 359.233 461.64 359.676C461.64 360.131 461.711 360.533 461.854 360.882C461.998 361.229 462.211 361.501 462.493 361.7C462.777 361.896 463.129 361.994 463.55 361.994Z" fill="#475467"/>
<path d="M512.582 356.455C512.531 356.023 512.324 355.688 511.96 355.449C511.596 355.21 511.15 355.091 510.622 355.091C510.236 355.091 509.898 355.153 509.608 355.278C509.321 355.403 509.096 355.575 508.935 355.794C508.775 356.013 508.696 356.261 508.696 356.54C508.696 356.773 508.751 356.973 508.862 357.141C508.976 357.305 509.121 357.443 509.297 357.554C509.473 357.662 509.658 357.751 509.851 357.822C510.044 357.891 510.221 357.946 510.383 357.989L511.27 358.227C511.497 358.287 511.75 358.369 512.028 358.474C512.31 358.58 512.578 358.723 512.834 358.905C513.092 359.084 513.305 359.314 513.473 359.595C513.64 359.876 513.724 360.222 513.724 360.631C513.724 361.102 513.601 361.528 513.354 361.909C513.109 362.29 512.751 362.592 512.28 362.817C511.811 363.041 511.241 363.153 510.571 363.153C509.946 363.153 509.405 363.053 508.947 362.851C508.493 362.649 508.135 362.368 507.873 362.007C507.615 361.646 507.469 361.227 507.435 360.75H508.525C508.554 361.08 508.665 361.352 508.858 361.568C509.054 361.781 509.301 361.94 509.599 362.045C509.9 362.148 510.224 362.199 510.571 362.199C510.974 362.199 511.336 362.134 511.658 362.003C511.979 361.869 512.233 361.685 512.42 361.449C512.608 361.21 512.702 360.932 512.702 360.614C512.702 360.324 512.621 360.088 512.459 359.906C512.297 359.724 512.084 359.577 511.819 359.463C511.555 359.349 511.27 359.25 510.963 359.165L509.889 358.858C509.207 358.662 508.667 358.382 508.27 358.018C507.872 357.655 507.673 357.179 507.673 356.591C507.673 356.102 507.805 355.676 508.069 355.312C508.336 354.946 508.694 354.662 509.143 354.46C509.595 354.256 510.099 354.153 510.656 354.153C511.219 354.153 511.719 354.254 512.156 354.456C512.594 354.655 512.94 354.928 513.196 355.274C513.454 355.621 513.591 356.014 513.605 356.455H512.582ZM518.07 363.136C517.439 363.136 516.895 362.997 516.438 362.719C515.983 362.438 515.632 362.045 515.385 361.543C515.141 361.037 515.019 360.449 515.019 359.778C515.019 359.108 515.141 358.517 515.385 358.006C515.632 357.491 515.976 357.091 516.416 356.804C516.86 356.514 517.377 356.369 517.968 356.369C518.308 356.369 518.645 356.426 518.977 356.54C519.31 356.653 519.612 356.838 519.885 357.094C520.158 357.347 520.375 357.682 520.537 358.099C520.699 358.517 520.78 359.031 520.78 359.642V360.068H515.735V359.199H519.757C519.757 358.83 519.683 358.5 519.536 358.21C519.391 357.92 519.183 357.692 518.914 357.524C518.647 357.357 518.331 357.273 517.968 357.273C517.567 357.273 517.22 357.372 516.928 357.571C516.638 357.767 516.415 358.023 516.259 358.338C516.102 358.653 516.024 358.991 516.024 359.352V359.932C516.024 360.426 516.11 360.845 516.28 361.189C516.453 361.53 516.693 361.79 517 361.969C517.307 362.145 517.664 362.233 518.07 362.233C518.334 362.233 518.573 362.196 518.786 362.122C519.002 362.045 519.188 361.932 519.344 361.781C519.5 361.628 519.621 361.437 519.706 361.21L520.678 361.483C520.575 361.812 520.404 362.102 520.162 362.352C519.921 362.599 519.622 362.793 519.267 362.932C518.912 363.068 518.513 363.136 518.07 363.136ZM522.31 365.455V356.455H523.281V357.494H523.401C523.475 357.381 523.577 357.236 523.708 357.06C523.841 356.881 524.031 356.722 524.279 356.582C524.529 356.44 524.867 356.369 525.293 356.369C525.844 356.369 526.33 356.507 526.75 356.783C527.171 357.058 527.499 357.449 527.735 357.955C527.97 358.46 528.088 359.057 528.088 359.744C528.088 360.438 527.97 361.038 527.735 361.547C527.499 362.053 527.172 362.445 526.754 362.723C526.337 362.999 525.855 363.136 525.31 363.136C524.889 363.136 524.553 363.067 524.3 362.928C524.047 362.786 523.852 362.625 523.716 362.446C523.58 362.264 523.475 362.114 523.401 361.994H523.316V365.455H522.31ZM523.298 359.727C523.298 360.222 523.371 360.658 523.516 361.036C523.661 361.411 523.872 361.705 524.151 361.918C524.429 362.128 524.77 362.233 525.173 362.233C525.594 362.233 525.945 362.122 526.226 361.901C526.51 361.676 526.723 361.375 526.865 360.997C527.01 360.616 527.083 360.193 527.083 359.727C527.083 359.267 527.012 358.852 526.87 358.483C526.73 358.111 526.519 357.817 526.235 357.601C525.953 357.382 525.6 357.273 525.173 357.273C524.764 357.273 524.421 357.376 524.142 357.584C523.864 357.788 523.654 358.075 523.512 358.445C523.37 358.811 523.298 359.239 523.298 359.727Z" fill="#475467"/>
<path d="M576.637 358.636C576.637 359.557 576.471 360.352 576.138 361.023C575.806 361.693 575.35 362.21 574.771 362.574C574.191 362.938 573.529 363.119 572.785 363.119C572.04 363.119 571.379 362.938 570.799 362.574C570.219 362.21 569.763 361.693 569.431 361.023C569.099 360.352 568.933 359.557 568.933 358.636C568.933 357.716 569.099 356.92 569.431 356.25C569.763 355.58 570.219 355.062 570.799 354.699C571.379 354.335 572.04 354.153 572.785 354.153C573.529 354.153 574.191 354.335 574.771 354.699C575.35 355.062 575.806 355.58 576.138 356.25C576.471 356.92 576.637 357.716 576.637 358.636ZM575.614 358.636C575.614 357.881 575.488 357.243 575.235 356.723C574.985 356.203 574.646 355.81 574.217 355.543C573.79 355.276 573.313 355.142 572.785 355.142C572.256 355.142 571.778 355.276 571.349 355.543C570.923 355.81 570.583 356.203 570.33 356.723C570.08 357.243 569.955 357.881 569.955 358.636C569.955 359.392 570.08 360.03 570.33 360.55C570.583 361.07 570.923 361.463 571.349 361.73C571.778 361.997 572.256 362.131 572.785 362.131C573.313 362.131 573.79 361.997 574.217 361.73C574.646 361.463 574.985 361.07 575.235 360.55C575.488 360.03 575.614 359.392 575.614 358.636ZM580.937 363.136C580.323 363.136 579.795 362.991 579.352 362.702C578.908 362.412 578.567 362.013 578.329 361.504C578.09 360.996 577.971 360.415 577.971 359.761C577.971 359.097 578.093 358.51 578.337 358.001C578.585 357.49 578.928 357.091 579.369 356.804C579.812 356.514 580.329 356.369 580.92 356.369C581.38 356.369 581.795 356.455 582.164 356.625C582.533 356.795 582.836 357.034 583.072 357.341C583.308 357.648 583.454 358.006 583.511 358.415H582.505C582.428 358.116 582.258 357.852 581.994 357.622C581.732 357.389 581.38 357.273 580.937 357.273C580.545 357.273 580.201 357.375 579.906 357.58C579.613 357.781 579.384 358.067 579.219 358.436C579.058 358.803 578.977 359.233 578.977 359.727C578.977 360.233 579.056 360.673 579.215 361.048C579.377 361.423 579.604 361.714 579.897 361.922C580.192 362.129 580.539 362.233 580.937 362.233C581.198 362.233 581.435 362.188 581.648 362.097C581.862 362.006 582.042 361.875 582.19 361.705C582.337 361.534 582.442 361.33 582.505 361.091H583.511C583.454 361.477 583.313 361.825 583.089 362.135C582.867 362.442 582.573 362.686 582.207 362.868C581.843 363.047 581.42 363.136 580.937 363.136ZM587.827 356.455V357.307H584.435V356.455H587.827ZM585.424 354.886H586.43V361.125C586.43 361.409 586.471 361.622 586.553 361.764C586.638 361.903 586.746 361.997 586.877 362.045C587.011 362.091 587.151 362.114 587.299 362.114C587.41 362.114 587.501 362.108 587.572 362.097C587.643 362.082 587.7 362.071 587.742 362.062L587.947 362.966C587.879 362.991 587.783 363.017 587.661 363.043C587.539 363.071 587.384 363.085 587.197 363.085C586.913 363.085 586.634 363.024 586.362 362.902C586.092 362.78 585.867 362.594 585.688 362.344C585.512 362.094 585.424 361.778 585.424 361.398V354.886Z" fill="#475467"/>
<path d="M636.066 354.273V363H635.043L630.288 356.148H630.202V363H629.146V354.273H630.168L634.941 361.142H635.026V354.273H636.066ZM640.703 363.136C640.113 363.136 639.594 362.996 639.148 362.714C638.705 362.433 638.358 362.04 638.108 361.534C637.861 361.028 637.738 360.437 637.738 359.761C637.738 359.08 637.861 358.484 638.108 357.976C638.358 357.467 638.705 357.072 639.148 356.791C639.594 356.51 640.113 356.369 640.703 356.369C641.294 356.369 641.811 356.51 642.255 356.791C642.701 357.072 643.047 357.467 643.294 357.976C643.544 358.484 643.669 359.08 643.669 359.761C643.669 360.437 643.544 361.028 643.294 361.534C643.047 362.04 642.701 362.433 642.255 362.714C641.811 362.996 641.294 363.136 640.703 363.136ZM640.703 362.233C641.152 362.233 641.522 362.118 641.811 361.888C642.101 361.658 642.316 361.355 642.455 360.98C642.594 360.605 642.664 360.199 642.664 359.761C642.664 359.324 642.594 358.916 642.455 358.538C642.316 358.161 642.101 357.855 641.811 357.622C641.522 357.389 641.152 357.273 640.703 357.273C640.255 357.273 639.885 357.389 639.595 357.622C639.306 357.855 639.091 358.161 638.952 358.538C638.813 358.916 638.743 359.324 638.743 359.761C638.743 360.199 638.813 360.605 638.952 360.98C639.091 361.355 639.306 361.658 639.595 361.888C639.885 362.118 640.255 362.233 640.703 362.233ZM650.322 356.455L647.902 363H646.879L644.459 356.455H645.55L647.357 361.67H647.425L649.232 356.455H650.322Z" fill="#475467"/>
<path d="M694.094 363H691.401V354.273H694.213C695.06 354.273 695.784 354.447 696.386 354.797C696.989 355.143 697.45 355.642 697.771 356.293C698.092 356.94 698.253 357.716 698.253 358.619C698.253 359.528 698.091 360.311 697.767 360.967C697.443 361.621 696.972 362.124 696.352 362.476C695.733 362.825 694.98 363 694.094 363ZM692.457 362.062H694.026C694.747 362.062 695.345 361.923 695.82 361.645C696.294 361.366 696.648 360.97 696.881 360.456C697.114 359.942 697.23 359.33 697.23 358.619C697.23 357.915 697.115 357.308 696.885 356.8C696.655 356.288 696.311 355.896 695.854 355.624C695.396 355.348 694.827 355.21 694.145 355.21H692.457V362.062ZM702.633 363.136C702.003 363.136 701.459 362.997 701.001 362.719C700.547 362.438 700.196 362.045 699.949 361.543C699.704 361.037 699.582 360.449 699.582 359.778C699.582 359.108 699.704 358.517 699.949 358.006C700.196 357.491 700.54 357.091 700.98 356.804C701.423 356.514 701.94 356.369 702.531 356.369C702.872 356.369 703.209 356.426 703.541 356.54C703.874 356.653 704.176 356.838 704.449 357.094C704.722 357.347 704.939 357.682 705.101 358.099C705.263 358.517 705.344 359.031 705.344 359.642V360.068H700.298V359.199H704.321C704.321 358.83 704.247 358.5 704.099 358.21C703.954 357.92 703.747 357.692 703.477 357.524C703.21 357.357 702.895 357.273 702.531 357.273C702.131 357.273 701.784 357.372 701.491 357.571C701.202 357.767 700.979 358.023 700.822 358.338C700.666 358.653 700.588 358.991 700.588 359.352V359.932C700.588 360.426 700.673 360.845 700.844 361.189C701.017 361.53 701.257 361.79 701.564 361.969C701.871 362.145 702.227 362.233 702.633 362.233C702.898 362.233 703.136 362.196 703.349 362.122C703.565 362.045 703.751 361.932 703.908 361.781C704.064 361.628 704.185 361.437 704.27 361.21L705.241 361.483C705.139 361.812 704.967 362.102 704.726 362.352C704.484 362.599 704.186 362.793 703.831 362.932C703.476 363.068 703.077 363.136 702.633 363.136ZM709.533 363.136C708.919 363.136 708.391 362.991 707.947 362.702C707.504 362.412 707.163 362.013 706.925 361.504C706.686 360.996 706.567 360.415 706.567 359.761C706.567 359.097 706.689 358.51 706.933 358.001C707.18 357.49 707.524 357.091 707.964 356.804C708.408 356.514 708.925 356.369 709.516 356.369C709.976 356.369 710.391 356.455 710.76 356.625C711.129 356.795 711.432 357.034 711.668 357.341C711.903 357.648 712.05 358.006 712.106 358.415H711.101C711.024 358.116 710.854 357.852 710.589 357.622C710.328 357.389 709.976 357.273 709.533 357.273C709.141 357.273 708.797 357.375 708.501 357.58C708.209 357.781 707.98 358.067 707.815 358.436C707.653 358.803 707.572 359.233 707.572 359.727C707.572 360.233 707.652 360.673 707.811 361.048C707.973 361.423 708.2 361.714 708.493 361.922C708.788 362.129 709.135 362.233 709.533 362.233C709.794 362.233 710.031 362.188 710.244 362.097C710.457 362.006 710.638 361.875 710.785 361.705C710.933 361.534 711.038 361.33 711.101 361.091H712.106C712.05 361.477 711.909 361.825 711.685 362.135C711.463 362.442 711.169 362.686 710.802 362.868C710.439 363.047 710.016 363.136 709.533 363.136Z" fill="#475467"/>
<mask id="mask0_202_4610" style="mask-type:alpha" maskUnits="userSpaceOnUse" x="1" y="46" width="736" height="294">
<rect width="736" height="294" transform="translate(1 46)" fill="url(#paint0_linear_202_4610)"/>
</mask>
<g mask="url(#mask0_202_4610)">
<path opacity="0.1" d="M17.6799 144.835L1 150.521V340H737V81.4583L721.363 90.901H704.683L696.864 99.7427H686.439C683.659 101.216 677.891 104.164 677.057 104.164C676.223 104.164 670.802 105.932 668.195 106.816L645.782 109.469L632.751 113.005L611.901 109.469L600.955 106.816L585.317 113.005H569.159L555.606 106.816C550.394 105.932 539.76 104.164 538.926 104.164C538.092 104.164 531.281 102.395 527.98 101.511H519.64L499.833 104.164L482.632 106.816L474.813 113.005L451.357 115.658L439.368 118.31L425.816 122.731L412.785 133.341H407.051L391.414 130.689L376.297 122.731L363.266 118.31H355.448L341.895 115.658L322.609 118.31H304.365L286.122 122.731L267.878 128.036L254.326 133.341L239.731 135.994L219.924 133.341L204.286 135.994L188.649 138.646L174.054 135.994L154.246 142.183L137.567 138.646L120.887 142.183H104.728L87.5269 144.835H69.8045L52.0822 147.488L34.881 142.183L17.6799 144.835Z" fill="#7F56D9"/>
</g>
<path d="M1 150.521L17.6799 144.835L34.881 142.183L52.0822 147.488L69.8045 144.835H87.5269L104.728 142.183H120.887L137.567 138.646L154.246 142.183L174.054 135.994L188.649 138.646L204.286 135.994L219.924 133.341L239.731 135.994L254.326 133.341L267.878 128.036L286.122 122.731L304.365 118.31H322.609L341.895 115.658L355.448 118.31H363.266L376.297 122.731L391.414 130.689L407.051 133.341H412.785L425.816 122.731L439.368 118.31L451.357 115.658L474.813 113.005L482.632 106.816L499.833 104.164L519.64 101.511H527.98C531.281 102.395 538.092 104.164 538.926 104.164C539.76 104.164 550.394 105.932 555.606 106.816L569.159 113.005H585.317L600.955 106.816L611.901 109.469L632.751 113.005L645.782 109.469L668.195 106.816C670.802 105.932 676.223 104.164 677.057 104.164C677.891 104.164 683.659 101.216 686.439 99.7427H696.864L704.683 90.901H721.363L737 81.4583" stroke="#7F56D9" stroke-width="2" stroke-linecap="round" stroke-linejoin="round"/>
<path d="M1 219.304L17.6799 215.683L34.881 213.993L52.0822 217.372L69.8045 215.683H87.5269L104.728 213.993H120.887L137.567 211.74L154.246 213.993L174.054 210.051L188.649 211.74L204.286 210.051L219.924 208.361L239.731 210.051L254.326 208.361L267.878 204.982L286.122 201.603L304.365 198.787H322.609L341.895 197.097L355.448 198.787H363.266L376.297 201.603L391.414 206.672L407.051 208.361H412.785L425.816 201.603L439.368 198.787L451.357 197.097L474.813 195.407L482.632 191.465L499.833 189.775L519.64 188.086H527.98C531.281 188.649 538.092 189.775 538.926 189.775C539.76 189.775 550.394 190.902 555.606 191.465L569.159 195.407H585.317L600.955 191.465L611.901 193.155L632.751 195.407L645.782 193.155L668.195 191.465C670.802 190.902 676.223 189.775 677.057 189.775C677.891 189.775 683.659 187.898 686.439 186.959H696.864L704.683 181.327H721.363L737 175.312" stroke="#B692F6" stroke-width="2" stroke-linecap="round" stroke-linejoin="round"/>
<path d="M1 306.354L17.6799 296.733L34.881 292.244L52.0822 301.221L69.8045 296.733H87.5269L104.728 292.244H120.887L137.567 286.259L154.246 292.244L174.054 281.77L188.649 286.259L204.286 281.77L219.924 277.281L239.731 281.77L254.326 277.281L267.878 268.303L286.122 259.325L304.365 251.844H322.609L341.895 247.355L355.448 251.844H363.266L376.297 259.325L391.414 272.792L407.051 277.281H412.785L425.816 259.325L439.368 251.844L451.357 247.355L474.813 242.866L482.632 232.392L499.833 227.903L519.64 223.415H527.98C531.281 224.911 538.092 227.903 538.926 227.903C539.76 227.903 550.394 230.896 555.606 232.392L569.159 242.866H585.317L600.955 232.392L611.901 236.881L632.751 242.866L645.782 236.881L668.195 232.392C670.802 230.896 676.223 227.903 677.057 227.903C677.891 227.903 683.659 222.916 686.439 220.422H696.864L704.683 205.459H721.363L737 189.479" stroke="#6941C6" stroke-width="2" stroke-linecap="round" stroke-linejoin="round"/>
<defs>
<linearGradient id="paint0_linear_202_4610" x1="368" y1="0" x2="368" y2="294" gradientUnits="userSpaceOnUse">
<stop/>
<stop offset="1" stop-opacity="0"/>
</linearGradient>
</defs>
</svg>
