<svg width="272" height="272" viewBox="0 0 272 272" fill="none" xmlns="http://www.w3.org/2000/svg">
<g filter="url(#filter0_b_202_4611)">
<rect width="272" height="272" rx="136" fill="white" fill-opacity="0.9"/>
<path d="M136 24C150.708 24 165.272 26.897 178.861 32.5255C192.449 38.154 204.796 46.4039 215.196 56.804C225.596 67.2042 233.846 79.551 239.475 93.1395C245.103 106.728 248 121.292 248 136C248 150.708 245.103 165.272 239.474 178.861C233.846 192.449 225.596 204.796 215.196 215.196C204.796 225.596 192.449 233.846 178.861 239.475C165.272 245.103 150.708 248 136 248C121.292 248 106.728 245.103 93.1394 239.474C79.551 233.846 67.2042 225.596 56.804 215.196C46.4038 204.796 38.154 192.449 32.5255 178.86C26.897 165.272 24 150.708 24 136C24 121.292 26.897 106.728 32.5255 93.1394C38.1541 79.5509 46.4039 67.2042 56.8041 56.804C67.2043 46.4038 79.551 38.154 93.1395 32.5255C106.728 26.8969 121.292 24 136 24L136 24Z" stroke="#F2F4F7" stroke-width="16" stroke-linecap="round" stroke-linejoin="round"/>
<path d="M136 24C161.635 24 186.494 32.7939 206.427 48.9134C226.359 65.0329 240.159 87.5024 245.522 112.57C250.885 137.638 247.486 163.787 235.893 186.65C224.3 209.514 205.214 227.709 181.823 238.197C158.432 248.685 132.15 250.832 107.367 244.278C82.5843 237.725 60.7994 222.868 45.65 202.188C30.5006 181.509 22.9037 156.258 24.1277 130.652C25.3518 105.046 35.3226 80.6356 52.3755 61.4953" stroke="#6941C6" stroke-width="16" stroke-linecap="round" stroke-linejoin="round"/>
<path d="M136 44C148.082 44 160.045 46.3797 171.207 51.0031C182.369 55.6265 192.511 62.4032 201.054 70.9462C209.597 79.4892 216.373 89.6312 220.997 100.793C225.62 111.955 228 123.918 228 136C228 148.082 225.62 160.045 220.997 171.207C216.373 182.369 209.597 192.511 201.054 201.054C192.511 209.597 182.369 216.373 171.207 220.997C160.045 225.62 148.082 228 136 228C123.918 228 111.955 225.62 100.793 220.997C89.6311 216.373 79.4891 209.597 70.9461 201.054C62.4032 192.511 55.6265 182.369 51.0031 171.207C46.3796 160.045 44 148.082 44 136C44 123.918 46.3797 111.955 51.0031 100.793C55.6265 89.6311 62.4032 79.4891 70.9462 70.9461C79.4892 62.4032 89.6312 55.6265 100.793 51.0031C111.955 46.3796 123.918 44 136 44L136 44Z" stroke="#F2F4F7" stroke-width="16" stroke-linecap="round" stroke-linejoin="round"/>
<path d="M136 44C154.791 44 173.132 49.7544 188.556 60.4892C203.979 71.224 215.746 86.4243 222.272 104.046C228.799 121.668 229.773 140.865 225.064 159.057C220.354 177.249 210.187 193.562 195.929 205.803C181.672 218.044 164.008 225.625 145.313 227.527C126.618 229.43 107.789 225.561 91.3578 216.443C74.9269 207.325 61.6823 193.393 53.4053 176.523C45.1282 159.653 42.2158 140.652 45.0596 122.077" stroke="#7F56D9" stroke-width="16" stroke-linecap="round" stroke-linejoin="round"/>
<path d="M136 64C145.455 64 154.818 65.8623 163.553 69.4807C172.289 73.099 180.226 78.4025 186.912 85.0883C193.598 91.7741 198.901 99.7114 202.519 108.447C206.138 117.182 208 126.545 208 136C208 145.455 206.138 154.818 202.519 163.553C198.901 172.289 193.597 180.226 186.912 186.912C180.226 193.598 172.289 198.901 163.553 202.519C154.818 206.138 145.455 208 136 208C126.545 208 117.182 206.138 108.447 202.519C99.7113 198.901 91.7741 193.597 85.0883 186.912C78.4025 180.226 73.099 172.289 69.4807 163.553C65.8623 154.818 64 145.455 64 136C64 126.545 65.8623 117.182 69.4807 108.447C73.099 99.7113 78.4025 91.7741 85.0883 85.0883C91.7742 78.4025 99.7114 73.099 108.447 69.4807C117.182 65.8623 126.545 64 136 64L136 64Z" stroke="#F2F4F7" stroke-width="16" stroke-linecap="round" stroke-linejoin="round"/>
<path d="M136 64C148.526 64 160.835 67.2678 171.712 73.4807C182.588 79.6936 191.656 88.6365 198.019 99.4261C204.382 110.216 207.82 122.478 207.993 135.003C208.167 147.528 205.069 159.881 199.008 170.843C192.946 181.805 184.129 190.995 173.429 197.507C162.729 204.018 150.514 207.626 137.993 207.972C125.472 208.319 113.077 205.393 102.033 199.484C90.9882 193.575 81.6765 184.886 75.0174 174.277" stroke="#B692F6" stroke-width="16" stroke-linecap="round" stroke-linejoin="round"/>
<path d="M96.5597 120H94.9291L98.5931 109.818H100.368L104.032 120H102.401L99.5228 111.668H99.4433L96.5597 120ZM96.8332 116.013H102.123V117.305H96.8332V116.013ZM108.477 120.154C107.738 120.154 107.101 119.987 106.568 119.652C106.037 119.314 105.63 118.848 105.345 118.255C105.06 117.662 104.917 116.982 104.917 116.217C104.917 115.441 105.063 114.757 105.354 114.163C105.646 113.567 106.057 113.101 106.587 112.766C107.118 112.432 107.743 112.264 108.462 112.264C109.042 112.264 109.559 112.372 110.013 112.587C110.467 112.799 110.833 113.098 111.112 113.482C111.393 113.867 111.561 114.316 111.614 114.83H110.167C110.087 114.472 109.905 114.163 109.62 113.905C109.338 113.646 108.961 113.517 108.487 113.517C108.072 113.517 107.709 113.626 107.398 113.845C107.09 114.061 106.849 114.369 106.677 114.77C106.505 115.168 106.418 115.638 106.418 116.182C106.418 116.739 106.503 117.219 106.672 117.624C106.841 118.028 107.08 118.341 107.388 118.563C107.699 118.785 108.066 118.896 108.487 118.896C108.768 118.896 109.024 118.845 109.252 118.742C109.484 118.636 109.678 118.485 109.834 118.29C109.993 118.094 110.104 117.859 110.167 117.584H111.614C111.561 118.078 111.4 118.518 111.131 118.906C110.863 119.294 110.503 119.599 110.053 119.821C109.605 120.043 109.08 120.154 108.477 120.154ZM116.768 112.364V113.557H112.597V112.364H116.768ZM113.715 110.534H115.202V117.758C115.202 118.046 115.245 118.263 115.331 118.409C115.417 118.552 115.528 118.649 115.664 118.702C115.804 118.752 115.954 118.777 116.117 118.777C116.236 118.777 116.34 118.769 116.43 118.752C116.519 118.736 116.589 118.722 116.639 118.712L116.907 119.94C116.821 119.973 116.698 120.007 116.539 120.04C116.38 120.076 116.181 120.096 115.943 120.099C115.552 120.106 115.187 120.036 114.849 119.891C114.511 119.745 114.237 119.519 114.029 119.214C113.82 118.91 113.715 118.527 113.715 118.066V110.534ZM118.412 120V112.364H119.899V120H118.412ZM119.163 111.185C118.905 111.185 118.682 111.099 118.497 110.927C118.315 110.751 118.223 110.542 118.223 110.3C118.223 110.055 118.315 109.846 118.497 109.674C118.682 109.498 118.905 109.411 119.163 109.411C119.422 109.411 119.642 109.498 119.824 109.674C120.01 109.846 120.103 110.055 120.103 110.3C120.103 110.542 120.01 110.751 119.824 110.927C119.642 111.099 119.422 111.185 119.163 111.185ZM128.431 112.364L125.662 120H124.071L121.297 112.364H122.893L124.827 118.24H124.907L126.835 112.364H128.431ZM132.86 120.154C132.107 120.154 131.459 119.993 130.916 119.672C130.376 119.347 129.958 118.891 129.663 118.305C129.371 117.715 129.226 117.024 129.226 116.232C129.226 115.449 129.371 114.76 129.663 114.163C129.958 113.567 130.369 113.101 130.896 112.766C131.426 112.432 132.046 112.264 132.755 112.264C133.186 112.264 133.604 112.335 134.008 112.478C134.413 112.621 134.776 112.844 135.097 113.149C135.419 113.454 135.672 113.85 135.858 114.337C136.043 114.821 136.136 115.41 136.136 116.102V116.629H130.066V115.516H134.679C134.679 115.125 134.6 114.778 134.441 114.477C134.282 114.172 134.058 113.931 133.77 113.756C133.485 113.58 133.15 113.492 132.765 113.492C132.348 113.492 131.983 113.595 131.672 113.8C131.363 114.003 131.125 114.268 130.956 114.596C130.79 114.921 130.707 115.274 130.707 115.655V116.525C130.707 117.035 130.797 117.469 130.976 117.827C131.158 118.185 131.411 118.459 131.736 118.648C132.061 118.833 132.441 118.926 132.875 118.926C133.156 118.926 133.413 118.886 133.645 118.807C133.877 118.724 134.078 118.601 134.247 118.439C134.416 118.277 134.545 118.076 134.635 117.837L136.042 118.091C135.929 118.505 135.727 118.868 135.435 119.18C135.147 119.488 134.784 119.728 134.346 119.901C133.912 120.07 133.417 120.154 132.86 120.154ZM146.328 116.833V112.364H147.819V120H146.358V118.678H146.278C146.102 119.085 145.821 119.425 145.433 119.697C145.049 119.965 144.57 120.099 143.996 120.099C143.506 120.099 143.071 119.992 142.694 119.776C142.319 119.558 142.024 119.234 141.809 118.807C141.597 118.379 141.491 117.851 141.491 117.221V112.364H142.977V117.042C142.977 117.562 143.121 117.977 143.41 118.285C143.698 118.593 144.072 118.747 144.533 118.747C144.812 118.747 145.088 118.678 145.363 118.538C145.642 118.399 145.872 118.189 146.054 117.907C146.24 117.625 146.331 117.267 146.328 116.833ZM155.539 114.228L154.192 114.467C154.135 114.294 154.046 114.13 153.923 113.974C153.804 113.819 153.641 113.691 153.436 113.592C153.23 113.492 152.974 113.442 152.665 113.442C152.244 113.442 151.893 113.537 151.611 113.726C151.33 113.911 151.189 114.152 151.189 114.447C151.189 114.702 151.283 114.907 151.472 115.063C151.661 115.219 151.966 115.347 152.387 115.446L153.6 115.724C154.303 115.887 154.826 116.137 155.171 116.475C155.516 116.813 155.688 117.252 155.688 117.793C155.688 118.25 155.556 118.658 155.29 119.016C155.029 119.37 154.662 119.649 154.192 119.851C153.724 120.053 153.182 120.154 152.566 120.154C151.711 120.154 151.013 119.972 150.473 119.607C149.933 119.239 149.601 118.717 149.479 118.041L150.915 117.822C151.005 118.197 151.189 118.48 151.467 118.673C151.746 118.862 152.109 118.956 152.556 118.956C153.043 118.956 153.433 118.855 153.724 118.653C154.016 118.447 154.162 118.197 154.162 117.902C154.162 117.663 154.072 117.463 153.893 117.3C153.718 117.138 153.448 117.015 153.083 116.933L151.79 116.649C151.078 116.487 150.551 116.228 150.209 115.874C149.871 115.519 149.702 115.07 149.702 114.526C149.702 114.076 149.828 113.681 150.08 113.343C150.332 113.005 150.68 112.741 151.124 112.553C151.568 112.36 152.077 112.264 152.65 112.264C153.476 112.264 154.125 112.443 154.599 112.801C155.073 113.156 155.387 113.631 155.539 114.228ZM160.614 120.154C159.861 120.154 159.213 119.993 158.67 119.672C158.13 119.347 157.712 118.891 157.417 118.305C157.125 117.715 156.979 117.024 156.979 116.232C156.979 115.449 157.125 114.76 157.417 114.163C157.712 113.567 158.123 113.101 158.65 112.766C159.18 112.432 159.8 112.264 160.509 112.264C160.94 112.264 161.358 112.335 161.762 112.478C162.167 112.621 162.529 112.844 162.851 113.149C163.172 113.454 163.426 113.85 163.612 114.337C163.797 114.821 163.89 115.41 163.89 116.102V116.629H157.82V115.516H162.433C162.433 115.125 162.354 114.778 162.195 114.477C162.036 114.172 161.812 113.931 161.524 113.756C161.238 113.58 160.904 113.492 160.519 113.492C160.102 113.492 159.737 113.595 159.426 113.8C159.117 114.003 158.879 114.268 158.71 114.596C158.544 114.921 158.461 115.274 158.461 115.655V116.525C158.461 117.035 158.551 117.469 158.729 117.827C158.912 118.185 159.165 118.459 159.49 118.648C159.815 118.833 160.194 118.926 160.629 118.926C160.91 118.926 161.167 118.886 161.399 118.807C161.631 118.724 161.832 118.601 162.001 118.439C162.17 118.277 162.299 118.076 162.389 117.837L163.796 118.091C163.683 118.505 163.481 118.868 163.189 119.18C162.901 119.488 162.538 119.728 162.1 119.901C161.666 120.07 161.171 120.154 160.614 120.154ZM165.539 120V112.364H166.976V113.577H167.056C167.195 113.166 167.44 112.843 167.791 112.607C168.146 112.369 168.547 112.249 168.995 112.249C169.087 112.249 169.197 112.253 169.323 112.259C169.452 112.266 169.553 112.274 169.626 112.284V113.706C169.566 113.689 169.46 113.671 169.308 113.651C169.155 113.628 169.003 113.616 168.85 113.616C168.499 113.616 168.186 113.691 167.911 113.84C167.639 113.986 167.424 114.19 167.264 114.452C167.105 114.71 167.026 115.005 167.026 115.337V120H165.539ZM176.635 114.228L175.287 114.467C175.231 114.294 175.142 114.13 175.019 113.974C174.9 113.819 174.737 113.691 174.532 113.592C174.326 113.492 174.069 113.442 173.761 113.442C173.34 113.442 172.989 113.537 172.707 113.726C172.425 113.911 172.285 114.152 172.285 114.447C172.285 114.702 172.379 114.907 172.568 115.063C172.757 115.219 173.062 115.347 173.483 115.446L174.696 115.724C175.398 115.887 175.922 116.137 176.267 116.475C176.611 116.813 176.784 117.252 176.784 117.793C176.784 118.25 176.651 118.658 176.386 119.016C176.124 119.37 175.758 119.649 175.287 119.851C174.82 120.053 174.278 120.154 173.662 120.154C172.807 120.154 172.109 119.972 171.569 119.607C171.028 119.239 170.697 118.717 170.574 118.041L172.011 117.822C172.101 118.197 172.285 118.48 172.563 118.673C172.841 118.862 173.204 118.956 173.652 118.956C174.139 118.956 174.528 118.855 174.82 118.653C175.112 118.447 175.258 118.197 175.258 117.902C175.258 117.663 175.168 117.463 174.989 117.3C174.813 117.138 174.543 117.015 174.179 116.933L172.886 116.649C172.174 116.487 171.647 116.228 171.305 115.874C170.967 115.519 170.798 115.07 170.798 114.526C170.798 114.076 170.924 113.681 171.176 113.343C171.428 113.005 171.776 112.741 172.22 112.553C172.664 112.36 173.173 112.264 173.746 112.264C174.571 112.264 175.221 112.443 175.695 112.801C176.169 113.156 176.482 113.631 176.635 114.228Z" fill="#475467"/>
<path d="M106.193 135.182V157H102.241V139.028H102.113L97.0099 142.288V138.665L102.432 135.182H106.193ZM115.102 154.017L114.964 155.189C114.864 156.084 114.687 156.993 114.431 157.916C114.182 158.847 113.919 159.702 113.642 160.484C113.366 161.265 113.142 161.879 112.971 162.327H110.372C110.471 161.893 110.606 161.304 110.777 160.558C110.954 159.813 111.125 158.974 111.288 158.044C111.451 157.114 111.562 156.169 111.618 155.21L111.693 154.017H115.102ZM126.594 157.415C124.84 157.415 123.334 156.972 122.077 156.084C120.827 155.189 119.865 153.9 119.19 152.217C118.523 150.526 118.189 148.491 118.189 146.112C118.196 143.733 118.533 141.709 119.201 140.04C119.876 138.364 120.838 137.085 122.088 136.205C123.345 135.324 124.847 134.884 126.594 134.884C128.342 134.884 129.844 135.324 131.101 136.205C132.358 137.085 133.32 138.364 133.988 140.04C134.663 141.716 135 143.74 135 146.112C135 148.499 134.663 150.537 133.988 152.227C133.32 153.911 132.358 155.196 131.101 156.084C129.851 156.972 128.349 157.415 126.594 157.415ZM126.594 154.081C127.958 154.081 129.034 153.41 129.822 152.067C130.618 150.718 131.016 148.733 131.016 146.112C131.016 144.379 130.834 142.923 130.472 141.744C130.11 140.565 129.599 139.678 128.938 139.081C128.278 138.477 127.496 138.175 126.594 138.175C125.238 138.175 124.165 138.85 123.377 140.2C122.589 141.542 122.191 143.513 122.184 146.112C122.177 147.852 122.351 149.315 122.706 150.501C123.068 151.687 123.579 152.582 124.24 153.186C124.9 153.783 125.685 154.081 126.594 154.081ZM146.604 157.415C144.85 157.415 143.344 156.972 142.087 156.084C140.837 155.189 139.875 153.9 139.2 152.217C138.532 150.526 138.199 148.491 138.199 146.112C138.206 143.733 138.543 141.709 139.211 140.04C139.885 138.364 140.848 137.085 142.098 136.205C143.355 135.324 144.857 134.884 146.604 134.884C148.351 134.884 149.853 135.324 151.111 136.205C152.368 137.085 153.33 138.364 153.998 140.04C154.672 141.716 155.01 143.74 155.01 146.112C155.01 148.499 154.672 150.537 153.998 152.227C153.33 153.911 152.368 155.196 151.111 156.084C149.861 156.972 148.358 157.415 146.604 157.415ZM146.604 154.081C147.968 154.081 149.044 153.41 149.832 152.067C150.628 150.718 151.025 148.733 151.025 146.112C151.025 144.379 150.844 142.923 150.482 141.744C150.12 140.565 149.608 139.678 148.948 139.081C148.287 138.477 147.506 138.175 146.604 138.175C145.248 138.175 144.175 138.85 143.387 140.2C142.598 141.542 142.201 143.513 142.194 146.112C142.187 147.852 142.361 149.315 142.716 150.501C143.078 151.687 143.589 152.582 144.25 153.186C144.91 153.783 145.695 154.081 146.604 154.081ZM166.614 157.415C164.86 157.415 163.354 156.972 162.097 156.084C160.847 155.189 159.884 153.9 159.21 152.217C158.542 150.526 158.208 148.491 158.208 146.112C158.215 143.733 158.553 141.709 159.22 140.04C159.895 138.364 160.858 137.085 162.108 136.205C163.365 135.324 164.867 134.884 166.614 134.884C168.361 134.884 169.863 135.324 171.12 136.205C172.377 137.085 173.34 138.364 174.007 140.04C174.682 141.716 175.019 143.74 175.019 146.112C175.019 148.499 174.682 150.537 174.007 152.227C173.34 153.911 172.377 155.196 171.12 156.084C169.87 156.972 168.368 157.415 166.614 157.415ZM166.614 154.081C167.978 154.081 169.054 153.41 169.842 152.067C170.637 150.718 171.035 148.733 171.035 146.112C171.035 144.379 170.854 142.923 170.492 141.744C170.13 140.565 169.618 139.678 168.958 139.081C168.297 138.477 167.516 138.175 166.614 138.175C165.257 138.175 164.185 138.85 163.397 140.2C162.608 141.542 162.21 143.513 162.203 146.112C162.196 147.852 162.37 149.315 162.725 150.501C163.088 151.687 163.599 152.582 164.259 153.186C164.92 153.783 165.705 154.081 166.614 154.081Z" fill="#101828"/>
</g>
<defs>
<filter id="filter0_b_202_4611" x="-8" y="-8" width="288" height="288" filterUnits="userSpaceOnUse" color-interpolation-filters="sRGB">
<feFlood flood-opacity="0" result="BackgroundImageFix"/>
<feGaussianBlur in="BackgroundImageFix" stdDeviation="4"/>
<feComposite in2="SourceAlpha" operator="in" result="effect1_backgroundBlur_202_4611"/>
<feBlend mode="normal" in="SourceGraphic" in2="effect1_backgroundBlur_202_4611" result="shape"/>
</filter>
</defs>
</svg>
